<svg xmlns="http://www.w3.org/2000/svg" viewBox="0 0 249 262" width="249" height="262" role="img" aria-label="limina logo">
  <path fill="#70AC90" d="M 183 22 Q 183 22 175 22.5 Q 167 23 165.5 24 Q 164 25 164 27 Q 164 29 168 33.5 Q 172 38 177 38.5 Q 182 39 188.5 42 Q 195 45 213 61 Q 231 77 231 80 Q 231 83 228 87 Q 225 91 211.5 102 Q 198 113 190.5 122.5 Q 183 132 176.5 146 Q 170 160 166.5 174 Q 163 188 159.5 194.5 Q 156 201 151.5 202.5 Q 147 204 140.5 200.5 Q 134 197 127 189 Q 120 181 113.5 170.5 Q 107 160 100 153 Q 93 146 88 145 Q 83 144 80 147 Q 77 150 77.5 153 Q 78 156 83.5 160.5 Q 89 165 103.5 185 Q 118 205 122.5 209 Q 127 213 134 216.5 Q 141 220 149.5 220 Q 158 220 163.5 216 Q 169 212 173 205 Q 177 198 181 182.5 Q 185 167 190.5 155 Q 196 143 206 131 Q 216 119 228 109.5 Q 240 100 243.5 94 Q 247 88 247.5 82 Q 248 76 245 69.5 Q 242 63 221.5 46 Q 201 29 192 25.5 Z
M 139 43 Q 139 43 136 40.5 Q 133 38 126.5 42.5 Q 120 47 106 61.5 Q 92 76 87 83 Q 82 90 71.5 100.5 Q 61 111 50 119 Q 39 127 34 132 Q 29 137 29 138.5 Q 29 140 37 142 Q 45 144 56.5 135.5 Q 68 127 77.5 118 Q 87 109 107 86 Q 127 63 134.5 57.5 Q 142 52 140.5 47.5 Z"/>
  <path fill="#183450" d="M 126 0 Q 126 0 119.5 0 Q 113 0 107 3 Q 101 6 76.5 41.5 Q 52 77 31.5 93 Q 11 109 5.5 117 Q 0 125 0 133 Q 0 141 2.5 145.5 Q 5 150 9.5 154 Q 14 158 29.5 163.5 Q 45 169 52 173.5 Q 59 178 81.5 206.5 Q 104 235 108.5 228 Q 113 221 95.5 197.5 Q 78 174 68 165.5 Q 58 157 39.5 150 Q 21 143 18.5 139.5 Q 16 136 16 133 Q 16 130 18 126.5 Q 20 123 37 110 Q 54 97 63 87.5 Q 72 78 91.5 48.5 Q 111 19 116.5 17.5 Q 122 16 128.5 21.5 Q 135 27 146 42 Q 157 57 162.5 61.5 Q 168 66 178.5 71.5 Q 189 77 174.5 94 Q 160 111 151 129.5 Q 142 148 137 166.5 Q 132 185 136.5 189.5 Q 141 194 143.5 194 Q 146 194 150.5 176.5 Q 155 159 161.5 144 Q 168 129 174.5 119.5 Q 181 110 194 97 Q 207 84 207.5 78 Q 208 72 204.5 68 Q 201 64 187.5 57 Q 174 50 167 42.5 Q 160 35 151.5 23 Q 143 11 134.5 5.5 Z
M 21 170 Q 21 170 22.5 175.5 Q 24 181 35 194.5 Q 46 208 57.5 225 Q 69 242 75.5 248.5 Q 82 255 89 258 Q 96 261 102 260.5 Q 108 260 112.5 257.5 Q 117 255 122.5 249 Q 128 243 131.5 236.5 Q 135 230 135 227 Q 135 224 129.5 221 Q 124 218 123 218.5 Q 122 219 119.5 224.5 Q 117 230 112 236 Q 107 242 101.5 243 Q 96 244 89.5 238.5 Q 83 233 62 204 Q 41 175 32.5 172 Q 24 169 22.5 169.5 Z"/>
</svg>
